<!DOCTYPE svg PUBLIC "-//W3C//DTD SVG 20010904//EN" "http://www.w3.org/TR/2001/REC-SVG-20010904/DTD/svg10.dtd">
<svg version="1.0" xmlns="http://www.w3.org/2000/svg" width="600px" height="283px" viewBox="0 0 6000 2830" preserveAspectRatio="xMidYMid meet">
<g id="layer101" fill="#1f191a" stroke="none">
<path d="M2770 2730 l0 -60 119 0 c66 0 131 -4 146 -10 23 -9 55 -60 55 -88 0 -6 -57 -11 -127 -14 -146 -4 -203 -24 -249 -84 -45 -58 -53 -98 -54 -251 l0 -143 80 0 80 0 0 130 c0 140 12 189 48 209 12 6 66 11 121 11 l101 0 2 -172 3 -173 78 -3 77 -3 0 258 c0 142 -4 273 -10 292 -16 58 -59 109 -113 136 -48 23 -60 25 -204 25 l-153 0 0 -60z"/>
<path d="M1991 2547 c-8 -11 -11 -78 -9 -238 l3 -224 77 -3 77 -3 3 88 3 88 65 -3 c75 -5 87 -12 151 -107 l44 -65 88 0 c53 0 87 4 87 10 0 17 -140 220 -151 220 -6 0 2 15 17 33 49 55 136 195 129 206 -3 6 -41 11 -85 11 l-80 0 -54 -78 c-30 -43 -67 -84 -81 -90 -14 -7 -50 -12 -80 -12 l-54 0 -3 88 -3 87 -66 3 c-47 2 -69 -1 -78 -11z"/>
<path d="M3508 2546 c-57 -15 -90 -36 -121 -78 -42 -56 -49 -99 -45 -293 3 -198 7 -212 70 -273 51 -51 110 -63 284 -60 l149 3 3 48 c5 75 0 77 -157 77 -131 0 -139 1 -159 23 -12 13 -25 37 -28 55 l-6 32 132 0 c73 0 150 5 171 11 51 16 105 62 131 112 31 59 31 166 1 223 -32 60 -95 111 -155 123 -65 15 -212 13 -270 -3z m237 -122 c43 -17 62 -131 30 -180 -23 -36 -54 -44 -171 -44 l-104 0 0 70 c0 76 17 132 47 149 19 11 171 15 198 5z"/>
<path d="M4223 2554 c-10 -4 -13 -50 -13 -180 l0 -174 -100 0 -100 0 0 -60 0 -60 283 2 282 3 0 55 0 55 -102 3 -103 3 -2 177 -3 177 -65 2 c-36 1 -71 -1 -77 -3z"/>
<path d="M4805 2551 c-83 -22 -145 -81 -170 -163 -19 -65 -19 -81 1 -149 19 -65 80 -129 141 -147 51 -15 303 -16 354 -1 80 24 140 99 154 191 14 91 21 88 -206 88 l-200 0 3 -52 3 -53 113 -3 c61 -1 112 -6 112 -11 0 -4 -9 -16 -21 -27 -18 -16 -37 -19 -135 -19 -134 0 -153 10 -161 88 -7 58 1 91 29 117 20 19 35 20 215 20 166 0 194 2 200 16 7 19 -30 60 -82 87 -34 18 -60 21 -180 24 -77 1 -153 -2 -170 -6z"/>
<path d="M5314 2545 c-3 -8 31 -104 75 -212 59 -142 90 -206 112 -225 29 -27 32 -28 152 -28 138 0 154 6 186 68 45 88 162 385 157 398 -4 10 -24 14 -74 14 -83 0 -86 -3 -132 -120 -64 -163 -97 -228 -119 -235 -42 -13 -64 16 -129 177 -35 85 -68 160 -75 167 -17 17 -146 15 -153 -4z"/>
</g>
<g id="layer102" fill="#0085c1" stroke="none">
<path d="M1790 1706 c0 -13 11 -47 26 -75 57 -114 65 -249 23 -375 -11 -32 -19 -68 -17 -80 3 -19 9 -21 78 -19 88 2 190 24 256 54 123 58 109 186 -35 330 -74 73 -134 116 -221 160 -75 37 -110 39 -110 5z"/>
</g>
<g id="layer103" fill="#f40080" stroke="none">
<path d="M525 1501 c-259 -93 -424 -270 -492 -529 -22 -84 -26 -125 -30 -302 -9 -380 43 -548 196 -638 42 -25 55 -27 146 -27 116 0 146 11 313 109 209 122 482 347 768 631 177 176 319 333 337 374 16 34 -8 47 -104 55 -44 4 -143 20 -220 36 -251 52 -448 119 -676 231 -89 43 -167 79 -175 78 -7 0 -35 -8 -63 -18z"/>
</g>
<g id="layer104" fill="#ffaa00" stroke="none">
<path d="M515 2813 c-67 -35 -111 -100 -134 -198 -21 -90 -42 -287 -47 -445 -7 -184 6 -266 61 -377 37 -75 144 -195 185 -208 12 -4 49 7 97 29 263 118 597 173 898 148 212 -18 212 -16 5 247 -374 475 -634 718 -853 799 -70 26 -168 29 -212 5z"/>
</g>


</svg>